<svg height="56" viewBox="0 0 56 56" width="56" xmlns="http://www.w3.org/2000/svg"><path d="m27.9999 51.9062c13.0547 0 23.9064-10.8515 23.9064-23.9062 0-13.0781-10.8751-23.9062-23.9298-23.9062-13.0782 0-23.8828 10.8281-23.8828 23.9062 0 13.0547 10.8281 23.9062 23.9062 23.9062zm-6.1172-18.0702c-5.8125-5.7891-9.5156-13.172-5.1328-17.5547.2578-.2579.5391-.5157.7969-.7735 1.3359-1.2656 2.625-1.1953 3.7734.4219l3.0469 4.3359c1.0312 1.5.7734 2.3438-.3281 3.5157l-.961 1.0547c-.3515.328-.2109.7734-.0468 1.0546.4453.8438 1.7109 2.3438 3.0702 3.7032 1.4063 1.4062 2.836 2.6015 3.7266 3.0937.3282.1875.7969.2344 1.1016-.0469l1.0078-.9609c1.125-1.1016 2.0391-1.3828 3.4922-.3516 2.0156 1.4297 3.2344 2.2735 4.4297 3.0938 1.4765 1.0781 1.8281 2.4141.3281 3.7734-.2578.2578-.4922.5391-.75.7969-4.3828 4.3594-11.7422.6562-17.5547-5.1562z"/></svg>